<svg width="500" height="351" viewBox="0 0 500 351" fill="none" xmlns="http://www.w3.org/2000/svg">
<path d="M19.0723 309.798C19.7259 308.662 20.3795 307.526 21.5696 306.324C23.8565 305.573 25.8781 305.28 27.3161 304.144C45.4823 289.795 63.5977 275.372 81.6554 260.868C92.276 252.337 102.771 243.627 113.594 234.978C114.294 234.65 114.722 234.342 115.434 233.88C130.125 222.195 144.507 210.629 158.944 199.14C173.132 187.85 187.392 176.664 201.559 165.344C202.674 164.453 203.679 162.999 204.101 161.59C209.975 142.013 215.739 122.398 221.529 102.792C229.24 76.6823 236.986 50.5838 244.582 24.4357C245.072 22.7482 244.404 20.6769 244.274 18.7841C245.816 16.9275 247.358 15.071 248.838 13.9606C248.562 16.6658 248.167 18.6246 248.165 20.5839C248.123 52.7158 248.522 84.8566 247.885 116.974C247.7 126.325 250.282 132.093 257.653 136.735C263.3 140.292 268.17 145.256 273.386 149.595C241.322 147.719 217.509 164.061 198.018 189.197C183.109 208.424 174.546 230.714 172.799 255.704C171.49 274.437 175.453 291.751 186.337 307.642C184.574 308.942 182.787 309.993 180.999 309.996C128.735 310.084 76.4709 310.071 24.2068 310.058C22.4953 310.057 20.7838 309.888 19.0723 309.798Z" fill="#09402D"/>
<path d="M279.061 309.012C293.938 295.525 306.295 279.885 314.207 260.684C324.258 236.289 327.494 211.362 318.505 185.373C334.534 197.486 350.24 210.011 366.046 222.392C371.236 226.458 376.683 230.148 382.058 234.348C382.498 235.172 382.824 235.755 383.296 236.128C394.388 244.91 405.517 253.639 416.597 262.439C435.018 277.071 453.397 291.763 471.862 306.331C472.529 306.857 473.92 306.336 474.973 306.303C475.951 307.749 476.929 309.196 478.266 311.175C476.962 311.439 476.182 311.598 474.913 311.293C472.642 310.554 470.859 310.039 469.076 310.038C407.861 309.994 346.645 310.009 285.43 309.955C283.307 309.953 281.184 309.34 279.061 309.012Z" fill="#0A402E"/>
<path d="M382.013 234.01C376.683 230.148 371.235 226.458 366.045 222.392C350.24 210.011 334.533 197.486 318.445 184.987C313.198 174.468 307.005 165.157 297.558 158.69C290.38 153.777 282.592 150.845 273.759 149.743C268.17 145.256 263.299 140.291 257.652 136.735C250.281 132.093 247.699 126.325 247.884 116.974C248.521 84.8566 248.123 52.7158 248.164 20.5839C248.166 18.6245 248.561 16.6658 248.938 14.3221C260.666 32.8425 272.264 51.7246 283.786 70.6591C295.234 89.4721 306.602 108.341 318.022 127.173C318.776 128.416 319.677 129.555 320.851 131.188C321.638 132.688 321.966 133.825 322.549 134.787C335.96 156.924 349.453 179.004 362.809 201.179C369.344 212.029 375.633 223.048 382.028 233.995C382.023 233.999 382.013 234.01 382.013 234.01Z" fill="#12593E"/>
<path d="M246.685 274.406C251.988 262.302 254.249 249.788 255.559 236.969C258.124 211.86 268.601 191.472 287.574 176.105C290.649 173.614 292.545 173.982 295.074 176.686C306.705 189.123 310.221 204.733 308.587 221.28C304.922 258.407 287.585 286.551 256.97 304.854C245.744 311.565 233.566 314.28 219.617 311.703C231.078 300.662 240.631 289.171 246.685 274.406Z" fill="#F1A832"/>
<path d="M201.767 301.521C189.443 288.758 186.068 272.781 187.648 255.892C190.661 223.704 204.835 197.796 229.477 178.887C243.046 168.475 258.12 162.888 275.855 166.242C274.8 167.486 274.128 168.468 273.288 169.241C254.572 186.47 243.942 208.315 241.55 234.459C239.393 258.035 231.835 278.708 215.423 295.142C213.039 297.529 210.348 299.567 207.965 301.955C205.804 304.119 203.935 304.004 201.767 301.521Z" fill="#F1A833"/>
<path d="M243.997 18.9584C244.404 20.6769 245.072 22.7482 244.582 24.4357C236.986 50.5838 229.241 76.6823 221.529 102.792C215.739 122.398 209.976 142.013 204.102 161.59C203.679 162.999 202.674 164.453 201.559 165.344C187.393 176.664 173.132 187.85 158.944 199.14C144.508 210.629 130.125 222.195 115.469 233.519C115.67 232.259 116.01 231.13 116.589 230.165C129.475 208.659 142.44 187.207 155.249 165.649C157.787 161.378 159.746 156.715 161.973 152.232C163.456 150.42 165.175 148.77 166.389 146.77C192.2 104.248 217.954 61.6866 243.997 18.9584Z" fill="#11583D"/>
<path d="M474.914 305.986C473.921 306.336 472.53 306.857 471.863 306.331C453.398 291.763 435.019 277.071 416.597 262.439C405.518 253.639 394.389 244.91 383.296 236.128C382.825 235.755 382.499 235.172 382.059 234.348C382.014 234.01 382.024 233.999 382.298 234.095C382.796 233.306 383.378 232.325 383.195 231.548C374.472 194.354 365.65 157.187 356.962 119.983C356.279 117.061 356.478 113.905 356.268 110.857C371.156 135.205 386.088 159.522 400.922 183.907C425.599 224.471 450.213 265.079 474.914 305.986Z" fill="#12593E"/>
<path d="M113.322 234.998C102.77 243.627 92.2757 252.337 81.655 260.868C63.5973 275.372 45.4819 289.795 27.3157 304.144C25.8777 305.28 23.8561 305.573 21.8203 306.126C31.447 289.521 41.3136 273.015 51.2802 256.578C76.0548 215.721 100.875 174.894 126.12 134.257C126.811 135.903 127.421 137.399 127.247 138.783C126.262 146.617 125.09 154.424 123.979 162.241C122.289 174.132 120.638 186.03 118.897 197.913C117.084 210.283 115.184 222.637 113.322 234.998Z" fill="#11583D"/>
<path d="M356.133 110.506C356.477 113.905 356.278 117.061 356.96 119.983C365.648 157.187 374.47 194.354 383.194 231.548C383.376 232.325 382.795 233.306 382.302 234.091C375.633 223.048 369.344 212.029 362.809 201.179C349.454 179.004 335.96 156.924 322.549 134.787C321.966 133.825 321.638 132.688 321.158 131.271C331.242 123.676 341.38 116.475 351.458 109.182C353.444 107.745 354.984 107.149 356.133 110.506Z" fill="#093F2D"/>
<path d="M113.594 234.978C115.184 222.637 117.084 210.283 118.897 197.913C120.638 186.03 122.29 174.132 123.979 162.241C125.09 154.424 126.262 146.617 127.247 138.783C127.421 137.399 126.812 135.903 126.396 134.077C126.92 132.457 127.612 131.22 128.436 129.747C139.662 137.236 150.567 144.51 161.722 152.008C159.746 156.715 157.787 161.378 155.249 165.649C142.439 187.207 129.474 208.659 116.588 230.165C116.01 231.13 115.67 232.259 115.185 233.673C114.722 234.342 114.294 234.65 113.594 234.978Z" fill="#093F2C"/>
<path d="M278.783 309.082C281.184 309.34 283.307 309.953 285.431 309.955C346.646 310.009 407.862 309.994 469.077 310.038C470.86 310.039 472.643 310.554 474.564 311.18C472.997 311.615 471.291 311.774 469.586 311.774C405.735 311.772 341.885 311.757 277.62 311.448C277.21 310.867 277.196 310.582 277.164 310.297C277.611 309.916 278.057 309.534 278.783 309.082Z" fill="#052F21"/>
<path d="M18.8418 309.984C20.7847 309.888 22.4962 310.057 24.2077 310.058C76.4717 310.071 128.736 310.084 181 309.996C182.788 309.993 184.575 308.942 186.459 307.943C187.793 308.472 189.03 309.437 190.266 310.403C190.047 310.792 189.829 311.182 189.61 311.571C188.785 311.673 187.96 311.864 187.135 311.865C132.335 311.88 77.5354 311.892 22.7356 311.809C21.3598 311.807 19.9855 310.74 18.8418 309.984Z" fill="#2C4F43"/>
<path d="M276.915 310.356C277.195 310.582 277.208 310.867 277.187 311.368C277.002 311.193 276.835 310.804 276.915 310.356Z" fill="#0A402E"/>
</svg>
